Coordinates
version=1
nRows=32
nColumns=22
inDegrees=yes

Units are S.I. units (second, meters, Newtons, ...)
If the header above contains a line with 'inDegrees', this indicates whether rotational values are in degrees (yes) or radians (no).

endheader
time	pelvis_tilt	pelvis_list	pelvis_rotation	pelvis_tx	pelvis_ty	pelvis_tz	hip_flexion_r	hip_adduction_r	hip_rotation_r	knee_angle_r	ankle_angle_r	subtalar_angle_r	hip_flexion_l	hip_adduction_l	hip_rotation_l	knee_angle_l	ankle_angle_l	subtalar_angle_l	lumbar_extension	lumbar_bending	lumbar_rotation
      0.01000000	     -2.14368597	     -6.62392655	      7.20931881	     -0.08124384	      0.97633086	      1.03789182	      5.18646852	      6.96746191	    -13.94496430	    -16.85485501	     12.38792398	      1.42945016	      2.53600976	     -7.57580555	      7.52201749	    -10.30288170	     12.41203554	     -2.41550565	      1.33561735	      6.31320438	     -7.22970059
      0.02000000	     -2.13699156	     -6.62362773	      7.22033356	     -0.08121506	      0.97633623	      1.03787107	      5.19431965	      6.96451379	    -13.95313084	    -16.88443412	     12.39888927	      1.43581322	      2.52518426	     -7.57613038	      7.50944491	    -10.29230756	     12.38687890	     -2.41588592	      1.32175554	      6.31398218	     -7.25289841
      0.03000000	     -2.13849923	     -6.62297064	      7.23038377	     -0.08117715	      0.97633421	      1.03783097	      5.19662669	      6.96277470	    -13.95218873	    -16.88802856	     12.40052287	      1.43670003	      2.52420834	     -7.57276671	      7.50770186	    -10.28755126	     12.38614737	     -2.41628230	      1.31638257	      6.31817211	     -7.25333578
      0.04000000	     -2.12957013	     -6.62067749	      7.24334742	     -0.08113762	      0.97633582	      1.03780556	      5.20590575	      6.95669708	    -13.96097707	    -16.92741614	     12.41556554	      1.44312218	      2.50453120	     -7.57222015	      7.51210324	    -10.26910792	     12.37727659	     -2.41961728	      1.29816354	      6.31759739	     -7.28148996
      0.05000000	     -2.13182564	     -6.61977192	      7.25344268	     -0.08108975	      0.97632972	      1.03776240	      5.20717701	      6.95393291	    -13.96161820	    -16.92857128	     12.41687123	      1.44369073	      2.50343489	     -7.56948072	      7.51116466	    -10.26569021	     12.37681047	     -2.42018714	      1.29380144	      6.32211228	     -7.28058558
      0.06000000	     -2.11274040	     -6.60756204	      7.29321495	     -0.08102517	      0.97634222	      1.03768341	      5.19194796	      6.93285602	    -14.03061122	    -16.94853972	     12.43905781	      1.45786295	      2.47209602	     -7.55723024	      7.55490716	    -10.24241601	     12.35990453	     -2.43874635	      1.26839539	      6.31336345	     -7.31517563
      0.07000000	     -2.11607505	     -6.60705378	      7.30055230	     -0.08098166	      0.97633182	      1.03764967	      5.19319206	      6.93087690	    -14.02980537	    -16.94808347	     12.43815445	      1.45801100	      2.47233798	     -7.55574801	      7.55397349	    -10.23970996	     12.36030404	     -2.43936923	      1.26341039	      6.31819009	     -7.31509733
      0.08000000	     -2.11928637	     -6.60651105	      7.30884026	     -0.08093555	      0.97632010	      1.03761525	      5.19325313	      6.92921752	    -14.03081957	    -16.94742616	     12.43638253	      1.45793949	      2.47262858	     -7.55398423	      7.55411646	    -10.23667068	     12.36108512	     -2.44003811	      1.25890921	      6.32350697	     -7.31500758
      0.09000000	     -2.12249057	     -6.60593229	      7.31781277	     -0.08089068	      0.97630667	      1.03757960	      5.19232552	      6.92758540	    -14.03425047	    -16.94483471	     12.43342201	      1.45774014	      2.47304590	     -7.55211233	      7.55621071	    -10.23346941	     12.36268724	     -2.44077252	      1.25415819	      6.32990721	     -7.31480972
      0.10000000	     -2.10366989	     -6.62414599	      7.37014653	     -0.08081616	      0.97631541	      1.03751026	      5.15628949	      6.94766848	    -14.10391029	    -16.91472205	     12.39359397	      1.45469632	      2.45721920	     -7.57293137	      7.62905034	    -10.22887852	     12.37896248	     -2.45156990	      1.23691085	      6.35574716	     -7.36469136
      0.11000000	     -2.10774686	     -6.62276917	      7.37533860	     -0.08076862	      0.97629764	      1.03749050	      5.15619126	      6.94718525	    -14.10379355	    -16.91268643	     12.39402819	      1.45481168	      2.45821423	     -7.57108548	      7.62866094	    -10.22703505	     12.37948874	     -2.45177712	      1.23224283	      6.36138223	     -7.36286931
      0.12000000	     -2.11124874	     -6.62131594	      7.38155535	     -0.08071418	      0.97627700	      1.03747429	      5.15538694	      6.94707788	    -14.10315163	    -16.91159596	     12.39389767	      1.45568460	      2.45856874	     -7.57016818	      7.62896212	    -10.22556755	     12.38066037	     -2.45193761	      1.22860556	      6.36773970	     -7.36081648
      0.13000000	     -2.11421968	     -6.62016821	      7.38808155	     -0.08065844	      0.97625421	      1.03746620	      5.15517011	      6.94794962	    -14.10160097	    -16.91215841	     12.39311183	      1.45781464	      2.45812441	     -7.57036674	      7.62975719	    -10.22370904	     12.38279813	     -2.45202377	      1.22442143	      6.37492854	     -7.35901156
      0.14000000	     -2.10723614	     -6.63459068	      7.39037746	     -0.08060997	      0.97623311	      1.03749474	      5.15998886	      6.96644357	    -14.09005552	    -16.93606149	     12.38315220	      1.48609674	      2.44311564	     -7.59219868	      7.64250149	    -10.21336075	     12.40518408	     -2.45103261	      1.20882681	      6.39888741	     -7.35961462
      0.15000000	     -2.09673351	     -6.65485957	      7.37670838	     -0.08051921	      0.97622127	      1.03753118	      5.14923723	      6.99123396	    -14.07722261	    -16.94192431	     12.38449326	      1.59776695	      2.41708011	     -7.62174333	      7.61937274	    -10.19808422	     12.43206860	     -2.43611656	      1.19384765	      6.43669419	     -7.33433148
      0.16000000	     -2.09391324	     -6.65226608	      7.37740222	     -0.08047487	      0.97619666	      1.03758016	      5.16803430	      6.98938678	    -14.05922414	    -16.98546294	     12.38115954	      1.60982709	      2.40390685	     -7.62649952	      7.61408372	    -10.18576925	     12.43667744	     -2.43213518	      1.17843927	      6.44223545	     -7.34914660
      0.17000000	     -2.09007166	     -6.65279531	      7.36676504	     -0.08042837	      0.97616811	      1.03764315	      5.20233771	      6.98657026	    -14.04272295	    -17.05814054	     12.38323758	      1.62336439	      2.38146921	     -7.63570857	      7.60259233	    -10.16299259	     12.44897821	     -2.42604700	      1.15984945	      6.45648967	     -7.34994638
      0.18000000	     -2.09699816	     -6.63764200	      7.31550243	     -0.08035854	      0.97612155	      1.03776079	      5.27113078	      6.96055934	    -14.00663678	    -17.18264314	     12.42538644	      1.67393883	      2.35274029	     -7.63027902	      7.53943213	    -10.12965034	     12.46989777	     -2.39937546	      1.15003744	      6.45476766	     -7.28362929
      0.19000000	     -2.09865367	     -6.62662334	      7.27793057	     -0.08033870	      0.97607819	      1.03788342	      5.35394751	      6.93848553	    -13.96877610	    -17.33042068	     12.45111165	      1.70622055	      2.32854824	     -7.62968026	      7.49811414	    -10.10206790	     12.48334452	     -2.37974848	      1.12478413	      6.46146772	     -7.26072347
      0.20000000	     -2.10345895	     -6.60737070	      7.23407235	     -0.08031971	      0.97602218	      1.03802856	      5.46407789	      6.90372685	    -13.92484202	    -17.52263674	     12.49284243	      1.73322907	      2.30630366	     -7.62108826	      7.44516965	    -10.07613747	     12.49816844	     -2.36316364	      1.09877088	      6.45842944	     -7.22844808
      0.21000000	     -2.11193994	     -6.57728063	      7.18168283	     -0.08031502	      0.97595077	      1.03819769	      5.60463024	      6.85342646	    -13.87235242	    -17.76248741	     12.54769555	      1.75473035	      2.28796089	     -7.60115047	      7.38470227	    -10.05444869	     12.51177455	     -2.34953428	      1.07077798	      6.44490044	     -7.19373299
      0.22000000	     -2.14204358	     -6.51909181	      7.11691451	     -0.08034556	      0.97584900	      1.03838528	      5.79103945	      6.77043471	    -13.78010969	    -18.04701142	     12.62058166	      1.77721333	      2.30008474	     -7.54625172	      7.30642077	    -10.05244715	     12.51363439	     -2.33337493	      1.05495460	      6.40052417	     -7.17065447
      0.23000000	     -2.15996990	     -6.46643879	      7.05869424	     -0.08037112	      0.97574064	      1.03858588	      5.98860773	      6.68930145	    -13.71737346	    -18.37080068	     12.70206143	      1.77224052	      2.29791523	     -7.50075173	      7.24197323	    -10.04538890	     12.53035932	     -2.32487405	      1.02317712	      6.36345557	     -7.14595938
      0.24000000	     -2.18138205	     -6.40099190	      6.99757440	     -0.08040770	      0.97561341	      1.03880850	      6.20808140	      6.59407621	    -13.64500309	    -18.72743702	     12.79275662	      1.74236132	      2.30188932	     -7.44134493	      7.17799339	    -10.04517092	     12.54491859	     -2.31810301	      0.98787819	      6.31167347	     -7.12387743
      0.25000000	     -2.20286167	     -6.32342086	      6.93704064	     -0.08044156	      0.97546959	      1.03902881	      6.43987080	      6.48464576	    -13.56777339	    -19.10816962	     12.89720184	      1.68735136	      2.30782006	     -7.36794900	      7.11190064	    -10.05124937	     12.56570806	     -2.31299956	      0.94727298	      6.25003484	     -7.10750577
      0.26000000	     -2.22990069	     -6.23434160	      6.87281144	     -0.08046924	      0.97530431	      1.03929466	      6.68476510	      6.36619156	    -13.48181684	    -19.50376872	     13.00970250	      1.60781447	      2.32226572	     -7.28401979	      7.04638553	    -10.06635201	     12.58717361	     -2.30749451	      0.90701658	      6.16956621	     -7.09558264
      0.27000000	     -2.26016586	     -6.13648958	      6.80975579	     -0.08048201	      0.97512182	      1.03957547	      6.93213978	      6.24101106	    -13.39058849	    -19.90107754	     13.12714145	      1.50876361	      2.34276593	     -7.19050694	      6.98162999	    -10.08895756	     12.61246132	     -2.30199861	      0.86661961	      6.07981288	     -7.08960237
      0.28000000	     -2.29725804	     -6.03105997	      6.74723061	     -0.08047683	      0.97492320	      1.03988242	      7.17880656	      6.11217200	    -13.29269202	    -20.28778148	     13.24403045	      1.39544303	      2.37403654	     -7.08940545	      6.91821449	    -10.12048668	     12.63694482	     -2.29599046	      0.82965000	      5.97981725	     -7.09181561
      0.29000000	     -2.33588610	     -5.92518531	      6.68706282	     -0.08044304	      0.97471651	      1.04022691	      7.41195203	      5.98914728	    -13.19841895	    -20.65057348	     13.35831754	      1.28164828	      2.41027559	     -6.98966519	      6.85940625	    -10.16009061	     12.66635026	     -2.29126889	      0.79188309	      5.87648557	     -7.10341646
      0.30000000	     -2.38078847	     -5.82259471	      6.62966070	     -0.08038919	      0.97450523	      1.04060739	      7.63072010	      5.87611731	    -13.10798020	    -20.97711772	     13.46323930	      1.17054646	      2.45908224	     -6.89457222	      6.80751178	    -10.20909874	     12.69460937	     -2.28713025	      0.75667810	      5.77475982	     -7.12461141
      0.31000000	     -2.42907837	     -5.72880665	      6.57713278	     -0.08029692	      0.97429541	      1.04101474	      7.82601579	      5.77891931	    -13.02653596	    -21.25942289	     13.55664985	      1.06640435	      2.51843455	     -6.80922312	      6.76385301	    -10.26993857	     12.72463323	     -2.28371646	      0.72437127	      5.68211897	     -7.15692459
      0.32000000	     -2.47605686	     -5.64574588	      6.52919419	     -0.08017170	      0.97409486	      1.04145302	      7.99223385	      5.69899749	    -12.95686207	    -21.49334380	     13.64151808	      0.97435355	      2.58369143	     -6.73742260	      6.72538572	    -10.34353513	     12.76174927	     -2.28072631	      0.68873550	      5.60154438	     -7.20161886
